<svg width="72" height="72" viewBox="0 0 72 72" fill="none" xmlns="http://www.w3.org/2000/svg">
<circle cx="36" cy="36" r="34.75" stroke="#FFFFFA" stroke-width="2.5"/>
<path d="M52.6666 44.1998V49.1998C52.6685 49.664 52.5734 50.1235 52.3875 50.5487C52.2015 50.974 51.9288 51.3558 51.5868 51.6696C51.2447 51.9834 50.8409 52.2223 50.4012 52.371C49.9615 52.5197 49.4956 52.5749 49.0333 52.5332C43.9047 51.9759 38.9783 50.2234 34.65 47.4165C30.623 44.8576 27.2089 41.4435 24.65 37.4165C21.8333 33.0685 20.0804 28.1182 19.5333 22.9665C19.4917 22.5056 19.5464 22.0411 19.6941 21.6025C19.8418 21.164 20.0793 20.761 20.3912 20.4192C20.7032 20.0774 21.083 19.8044 21.5063 19.6174C21.9296 19.4304 22.3872 19.3336 22.85 19.3332H27.85C28.6588 19.3252 29.443 19.6116 30.0562 20.1391C30.6695 20.6665 31.0701 21.3989 31.1833 22.1998C31.3943 23.7999 31.7857 25.371 32.35 26.8832C32.5742 27.4797 32.6227 28.128 32.4898 28.7513C32.3569 29.3746 32.0481 29.9467 31.6 30.3998L29.4833 32.5165C31.8559 36.6891 35.3107 40.1439 39.4833 42.5165L41.6 40.3998C42.0531 39.9517 42.6252 39.6429 43.2485 39.51C43.8718 39.3771 44.5201 39.4256 45.1166 39.6498C46.6288 40.2141 48.1999 40.6055 49.8 40.8165C50.6096 40.9307 51.349 41.3385 51.8775 41.9623C52.4061 42.5861 52.6869 43.3825 52.6666 44.1998Z" stroke="#FFFFFA" stroke-width="2" stroke-linecap="round" stroke-linejoin="round"/>
</svg>
