<svg width="72" height="72" viewBox="0 0 72 72" fill="none" xmlns="http://www.w3.org/2000/svg">
<circle cx="36" cy="36" r="34.75" stroke="#FFFFFA" stroke-width="2.5"/>
<path d="M51 32.6665C51 44.3332 36 54.3332 36 54.3332C36 54.3332 21 44.3332 21 32.6665C21 28.6883 22.5804 24.8729 25.3934 22.0599C28.2064 19.2469 32.0218 17.6665 36 17.6665C39.9782 17.6665 43.7936 19.2469 46.6066 22.0599C49.4196 24.8729 51 28.6883 51 32.6665Z" stroke="#FFFFFA" stroke-width="2" stroke-linecap="round" stroke-linejoin="round"/>
<path d="M36 37.6665C38.7614 37.6665 41 35.4279 41 32.6665C41 29.9051 38.7614 27.6665 36 27.6665C33.2386 27.6665 31 29.9051 31 32.6665C31 35.4279 33.2386 37.6665 36 37.6665Z" stroke="#FFFFFA" stroke-width="2" stroke-linecap="round" stroke-linejoin="round"/>
</svg>
