<svg xmlns="http://www.w3.org/2000/svg" xmlns:xlink="http://www.w3.org/1999/xlink" width="500" zoomAndPan="magnify" viewBox="0 0 375 374.999991" height="500" preserveAspectRatio="xMidYMid meet" version="1.0"><defs><g/><clipPath id="871e1107f8"><path d="M 80.535156 121.027344 L 172.785156 121.027344 L 172.785156 213.277344 L 80.535156 213.277344 Z M 80.535156 121.027344 " clip-rule="nonzero"/></clipPath></defs><rect x="-37.5" width="450" fill="#ffffff" y="-37.499999" height="449.999989" fill-opacity="1"/><rect x="-37.5" width="450" fill="#ffffff" y="-37.499999" height="449.999989" fill-opacity="1"/><rect x="-37.5" width="450" fill="#0b2976" y="-37.499999" height="449.999989" fill-opacity="1"/><g clip-path="url(#871e1107f8)"><path fill="#ffffff" d="M 126.65625 122.6875 C 151.210938 122.6875 171.117188 142.59375 171.117188 167.148438 C 171.117188 191.703125 151.210938 211.609375 126.65625 211.609375 C 102.101562 211.609375 82.195312 191.703125 82.195312 167.148438 C 82.195312 142.59375 102.101562 122.6875 126.65625 122.6875 Z M 126.65625 121.027344 C 101.183594 121.027344 80.535156 141.675781 80.535156 167.148438 C 80.535156 192.621094 101.183594 213.273438 126.65625 213.273438 C 152.128906 213.273438 172.78125 192.621094 172.78125 167.148438 C 172.78125 141.675781 152.128906 121.027344 126.65625 121.027344 Z M 148.761719 146.628906 L 148.761719 165.917969 L 143.328125 162.40625 L 133.046875 168.789062 L 131.316406 169.867188 L 130.304688 170.492188 L 130.304688 140.914062 L 118.621094 148.15625 L 118.621094 160.878906 L 115.882812 159.023438 L 115.882812 146.628906 L 133.046875 135.992188 Z M 88.269531 167.148438 C 88.269531 145.949219 105.457031 128.761719 126.65625 128.761719 C 147.859375 128.761719 165.042969 145.949219 165.042969 167.148438 C 165.042969 176.945312 161.367188 185.882812 155.328125 192.664062 L 155.328125 172.21875 L 143.371094 164.125 L 130.304688 172.21875 L 130.304688 205.359375 C 129.105469 205.472656 127.886719 205.535156 126.65625 205.535156 C 125.425781 205.535156 124.210938 205.472656 123.007812 205.359375 L 123.007812 165.707031 L 111.046875 157.609375 L 97.984375 165.707031 L 97.984375 192.664062 C 91.945312 185.882812 88.269531 176.945312 88.269531 167.148438 Z M 100.070312 166.867188 L 108.960938 161.359375 L 108.960938 201.210938 C 105.691406 199.511719 102.703125 197.355469 100.070312 194.824219 Z M 132.390625 173.382812 L 141.28125 167.871094 L 141.28125 202.644531 C 138.472656 203.804688 135.492188 204.644531 132.390625 205.109375 Z M 84.421875 167.148438 C 84.421875 190.476562 103.332031 209.386719 126.65625 209.386719 C 149.984375 209.386719 168.890625 190.476562 168.890625 167.148438 C 168.890625 143.824219 149.984375 124.914062 126.65625 124.914062 C 103.332031 124.914062 84.421875 143.824219 84.421875 167.148438 " fill-opacity="1" fill-rule="nonzero"/></g><g fill="#ffffff" fill-opacity="1"><g transform="translate(187.499992, 159.643262)"><g><path d="M 18.75 -16.46875 C 18.75 -15.78125 18.65625 -15.179688 18.46875 -14.671875 C 18.28125 -14.160156 18.015625 -13.722656 17.671875 -13.359375 C 17.328125 -12.992188 16.914062 -12.679688 16.4375 -12.421875 C 15.957031 -12.160156 15.425781 -11.9375 14.84375 -11.75 L 14.84375 -11.609375 C 15.5625 -11.421875 16.210938 -11.164062 16.796875 -10.84375 C 17.390625 -10.53125 17.898438 -10.144531 18.328125 -9.6875 C 18.753906 -9.226562 19.085938 -8.695312 19.328125 -8.09375 C 19.566406 -7.488281 19.6875 -6.8125 19.6875 -6.0625 C 19.6875 -4.019531 18.941406 -2.5 17.453125 -1.5 C 15.972656 -0.5 13.765625 0 10.828125 0 L 0.859375 0 L 0.859375 -1.640625 L 2.125 -1.640625 C 2.363281 -1.640625 2.578125 -1.660156 2.765625 -1.703125 C 2.960938 -1.753906 3.128906 -1.847656 3.265625 -1.984375 C 3.410156 -2.128906 3.523438 -2.332031 3.609375 -2.59375 C 3.703125 -2.851562 3.75 -3.207031 3.75 -3.65625 L 3.75 -18.46875 C 3.75 -18.882812 3.703125 -19.21875 3.609375 -19.46875 C 3.523438 -19.726562 3.410156 -19.925781 3.265625 -20.0625 C 3.117188 -20.207031 2.945312 -20.304688 2.75 -20.359375 C 2.5625 -20.421875 2.351562 -20.453125 2.125 -20.453125 L 0.859375 -20.453125 L 0.859375 -22.078125 L 9.890625 -22.078125 C 12.835938 -22.078125 15.050781 -21.625 16.53125 -20.71875 C 18.007812 -19.8125 18.75 -18.394531 18.75 -16.46875 Z M 8.625 -1.890625 L 10.6875 -1.890625 C 11.363281 -1.890625 11.941406 -1.960938 12.421875 -2.109375 C 12.910156 -2.265625 13.304688 -2.507812 13.609375 -2.84375 C 13.910156 -3.1875 14.128906 -3.628906 14.265625 -4.171875 C 14.398438 -4.710938 14.46875 -5.375 14.46875 -6.15625 C 14.46875 -6.914062 14.40625 -7.570312 14.28125 -8.125 C 14.164062 -8.6875 13.960938 -9.148438 13.671875 -9.515625 C 13.378906 -9.878906 12.992188 -10.148438 12.515625 -10.328125 C 12.046875 -10.515625 11.453125 -10.609375 10.734375 -10.609375 L 8.625 -10.609375 Z M 8.625 -12.5 L 9.796875 -12.5 C 10.523438 -12.5 11.128906 -12.570312 11.609375 -12.71875 C 12.085938 -12.875 12.46875 -13.109375 12.75 -13.421875 C 13.039062 -13.734375 13.242188 -14.140625 13.359375 -14.640625 C 13.484375 -15.148438 13.546875 -15.757812 13.546875 -16.46875 C 13.546875 -17.164062 13.476562 -17.75 13.34375 -18.21875 C 13.207031 -18.695312 12.988281 -19.082031 12.6875 -19.375 C 12.382812 -19.664062 11.988281 -19.875 11.5 -20 C 11.019531 -20.132812 10.4375 -20.203125 9.75 -20.203125 L 8.625 -20.203125 Z M 8.625 -12.5 "/></g></g></g><g fill="#ffffff" fill-opacity="1"><g transform="translate(206.739147, 159.643262)"><g><path d="M 8.171875 0.296875 C 6.785156 0.296875 5.628906 0.164062 4.703125 -0.09375 C 3.773438 -0.351562 3.03125 -0.6875 2.46875 -1.09375 C 1.90625 -1.507812 1.503906 -1.972656 1.265625 -2.484375 C 1.035156 -3.003906 0.921875 -3.515625 0.921875 -4.015625 C 0.921875 -4.546875 1.019531 -4.992188 1.21875 -5.359375 C 1.414062 -5.722656 1.675781 -6.019531 2 -6.25 C 2.332031 -6.476562 2.707031 -6.644531 3.125 -6.75 C 3.539062 -6.851562 3.972656 -6.90625 4.421875 -6.90625 C 4.421875 -6.019531 4.523438 -5.238281 4.734375 -4.5625 C 4.953125 -3.894531 5.242188 -3.335938 5.609375 -2.890625 C 5.984375 -2.441406 6.429688 -2.101562 6.953125 -1.875 C 7.472656 -1.65625 8.039062 -1.546875 8.65625 -1.546875 C 9.257812 -1.546875 9.796875 -1.628906 10.265625 -1.796875 C 10.742188 -1.960938 11.148438 -2.195312 11.484375 -2.5 C 11.816406 -2.800781 12.066406 -3.15625 12.234375 -3.5625 C 12.410156 -3.976562 12.5 -4.421875 12.5 -4.890625 C 12.5 -5.421875 12.390625 -5.890625 12.171875 -6.296875 C 11.960938 -6.703125 11.644531 -7.078125 11.21875 -7.421875 C 10.789062 -7.773438 10.25 -8.109375 9.59375 -8.421875 C 8.945312 -8.734375 8.191406 -9.070312 7.328125 -9.4375 C 6.242188 -9.882812 5.332031 -10.34375 4.59375 -10.8125 C 3.851562 -11.28125 3.253906 -11.785156 2.796875 -12.328125 C 2.347656 -12.867188 2.023438 -13.457031 1.828125 -14.09375 C 1.640625 -14.726562 1.546875 -15.421875 1.546875 -16.171875 C 1.546875 -17.117188 1.734375 -17.972656 2.109375 -18.734375 C 2.492188 -19.503906 3.023438 -20.160156 3.703125 -20.703125 C 4.378906 -21.253906 5.179688 -21.675781 6.109375 -21.96875 C 7.035156 -22.257812 8.039062 -22.40625 9.125 -22.40625 C 10.257812 -22.40625 11.238281 -22.3125 12.0625 -22.125 C 12.894531 -21.9375 13.578125 -21.679688 14.109375 -21.359375 C 14.648438 -21.035156 15.050781 -20.65625 15.3125 -20.21875 C 15.570312 -19.78125 15.703125 -19.3125 15.703125 -18.8125 C 15.703125 -18.445312 15.625 -18.109375 15.46875 -17.796875 C 15.3125 -17.484375 15.078125 -17.207031 14.765625 -16.96875 C 14.453125 -16.738281 14.054688 -16.554688 13.578125 -16.421875 C 13.097656 -16.296875 12.539062 -16.234375 11.90625 -16.234375 C 11.90625 -16.671875 11.847656 -17.140625 11.734375 -17.640625 C 11.617188 -18.140625 11.425781 -18.601562 11.15625 -19.03125 C 10.894531 -19.457031 10.554688 -19.8125 10.140625 -20.09375 C 9.722656 -20.375 9.21875 -20.515625 8.625 -20.515625 C 8.207031 -20.515625 7.8125 -20.453125 7.4375 -20.328125 C 7.070312 -20.210938 6.75 -20.03125 6.46875 -19.78125 C 6.195312 -19.539062 5.976562 -19.242188 5.8125 -18.890625 C 5.65625 -18.535156 5.578125 -18.125 5.578125 -17.65625 C 5.578125 -17.226562 5.644531 -16.820312 5.78125 -16.4375 C 5.925781 -16.050781 6.1875 -15.675781 6.5625 -15.3125 C 6.9375 -14.945312 7.453125 -14.578125 8.109375 -14.203125 C 8.773438 -13.835938 9.632812 -13.441406 10.6875 -13.015625 C 11.738281 -12.585938 12.632812 -12.144531 13.375 -11.6875 C 14.125 -11.238281 14.738281 -10.753906 15.21875 -10.234375 C 15.695312 -9.710938 16.046875 -9.140625 16.265625 -8.515625 C 16.484375 -7.898438 16.59375 -7.21875 16.59375 -6.46875 C 16.59375 -5.46875 16.394531 -4.550781 16 -3.71875 C 15.601562 -2.894531 15.035156 -2.179688 14.296875 -1.578125 C 13.566406 -0.984375 12.6875 -0.519531 11.65625 -0.1875 C 10.625 0.132812 9.460938 0.296875 8.171875 0.296875 Z M 8.171875 0.296875 "/></g></g></g><g fill="#ffffff" fill-opacity="1"><g transform="translate(223.31961, 159.643262)"><g><path d="M 18.6875 0 L 18.6875 -1.640625 L 18.984375 -1.640625 C 19.304688 -1.640625 19.59375 -1.660156 19.84375 -1.703125 C 20.09375 -1.742188 20.296875 -1.820312 20.453125 -1.9375 C 20.617188 -2.0625 20.738281 -2.238281 20.8125 -2.46875 C 20.894531 -2.695312 20.9375 -3 20.9375 -3.375 L 20.9375 -19.03125 L 14.703125 0 L 12.59375 0 L 6.0625 -19.03125 L 6.0625 -3.65625 C 6.0625 -3.207031 6.113281 -2.851562 6.21875 -2.59375 C 6.320312 -2.332031 6.472656 -2.128906 6.671875 -1.984375 C 6.867188 -1.847656 7.109375 -1.753906 7.390625 -1.703125 C 7.671875 -1.660156 7.992188 -1.640625 8.359375 -1.640625 L 8.53125 -1.640625 L 8.53125 0 L 0.859375 0 L 0.859375 -1.640625 L 2.15625 -1.640625 C 2.382812 -1.640625 2.59375 -1.660156 2.78125 -1.703125 C 2.96875 -1.742188 3.132812 -1.828125 3.28125 -1.953125 C 3.425781 -2.078125 3.539062 -2.265625 3.625 -2.515625 C 3.707031 -2.765625 3.75 -3.085938 3.75 -3.484375 L 3.75 -18.5625 C 3.75 -18.976562 3.707031 -19.304688 3.625 -19.546875 C 3.539062 -19.796875 3.425781 -19.984375 3.28125 -20.109375 C 3.132812 -20.242188 2.96875 -20.332031 2.78125 -20.375 C 2.59375 -20.425781 2.382812 -20.453125 2.15625 -20.453125 L 0.859375 -20.453125 L 0.859375 -22.078125 L 9.78125 -22.078125 L 14.90625 -7.140625 L 19.828125 -22.078125 L 28.578125 -22.078125 L 28.578125 -20.453125 L 27.28125 -20.453125 C 27.0625 -20.453125 26.851562 -20.425781 26.65625 -20.375 C 26.46875 -20.332031 26.300781 -20.238281 26.15625 -20.09375 C 26.019531 -19.957031 25.910156 -19.757812 25.828125 -19.5 C 25.742188 -19.238281 25.703125 -18.882812 25.703125 -18.4375 L 25.703125 -3.65625 C 25.703125 -3.207031 25.742188 -2.851562 25.828125 -2.59375 C 25.910156 -2.332031 26.019531 -2.128906 26.15625 -1.984375 C 26.300781 -1.847656 26.46875 -1.753906 26.65625 -1.703125 C 26.851562 -1.660156 27.0625 -1.640625 27.28125 -1.640625 L 28.578125 -1.640625 L 28.578125 0 Z M 18.6875 0 "/></g></g></g><g fill="#ffffff" fill-opacity="1"><g transform="translate(187.499992, 189.789612)"><g><path d="M 12.421875 0.296875 C 10.628906 0.296875 9.0625 0.0234375 7.71875 -0.515625 C 6.382812 -1.054688 5.273438 -1.828125 4.390625 -2.828125 C 3.515625 -3.828125 2.859375 -5.023438 2.421875 -6.421875 C 1.984375 -7.828125 1.765625 -9.382812 1.765625 -11.09375 C 1.765625 -12.769531 1.992188 -14.300781 2.453125 -15.6875 C 2.921875 -17.082031 3.609375 -18.28125 4.515625 -19.28125 C 5.429688 -20.28125 6.5625 -21.054688 7.90625 -21.609375 C 9.257812 -22.171875 10.832031 -22.453125 12.625 -22.453125 C 13.769531 -22.453125 14.769531 -22.363281 15.625 -22.1875 C 16.476562 -22.007812 17.191406 -21.765625 17.765625 -21.453125 C 18.335938 -21.140625 18.765625 -20.769531 19.046875 -20.34375 C 19.328125 -19.914062 19.46875 -19.457031 19.46875 -18.96875 C 19.46875 -18.632812 19.390625 -18.332031 19.234375 -18.0625 C 19.085938 -17.800781 18.882812 -17.578125 18.625 -17.390625 C 18.363281 -17.203125 18.0625 -17.054688 17.71875 -16.953125 C 17.375 -16.847656 17 -16.796875 16.59375 -16.796875 C 16.59375 -17.285156 16.519531 -17.765625 16.375 -18.234375 C 16.238281 -18.710938 16.007812 -19.140625 15.6875 -19.515625 C 15.363281 -19.898438 14.9375 -20.207031 14.40625 -20.4375 C 13.882812 -20.675781 13.242188 -20.796875 12.484375 -20.796875 C 11.171875 -20.796875 10.050781 -20.582031 9.125 -20.15625 C 8.207031 -19.726562 7.457031 -19.101562 6.875 -18.28125 C 6.289062 -17.457031 5.863281 -16.441406 5.59375 -15.234375 C 5.332031 -14.023438 5.203125 -12.644531 5.203125 -11.09375 C 5.203125 -9.550781 5.335938 -8.175781 5.609375 -6.96875 C 5.890625 -5.769531 6.335938 -4.757812 6.953125 -3.9375 C 7.566406 -3.125 8.363281 -2.503906 9.34375 -2.078125 C 10.320312 -1.660156 11.515625 -1.453125 12.921875 -1.453125 C 13.515625 -1.453125 14.09375 -1.484375 14.65625 -1.546875 C 15.21875 -1.609375 15.71875 -1.703125 16.15625 -1.828125 L 16.15625 -6.828125 C 16.15625 -7.285156 16.085938 -7.648438 15.953125 -7.921875 C 15.816406 -8.203125 15.628906 -8.414062 15.390625 -8.5625 C 15.160156 -8.707031 14.890625 -8.804688 14.578125 -8.859375 C 14.273438 -8.910156 13.953125 -8.9375 13.609375 -8.9375 L 13.484375 -8.9375 L 13.484375 -10.234375 L 21.546875 -10.234375 L 21.546875 -8.9375 L 21.421875 -8.9375 C 21.128906 -8.9375 20.847656 -8.910156 20.578125 -8.859375 C 20.316406 -8.804688 20.09375 -8.703125 19.90625 -8.546875 C 19.71875 -8.390625 19.566406 -8.160156 19.453125 -7.859375 C 19.335938 -7.566406 19.28125 -7.175781 19.28125 -6.6875 L 19.28125 -1.125 C 18.238281 -0.632812 17.164062 -0.273438 16.0625 -0.046875 C 14.96875 0.179688 13.753906 0.296875 12.421875 0.296875 Z M 12.421875 0.296875 "/></g></g></g><g fill="#ffffff" fill-opacity="1"><g transform="translate(208.077086, 189.789612)"><g><path d="M 8.515625 -15.265625 C 7.367188 -15.265625 6.484375 -14.796875 5.859375 -13.859375 C 5.242188 -12.921875 4.878906 -11.554688 4.765625 -9.765625 L 11.890625 -9.765625 C 11.890625 -10.578125 11.828125 -11.320312 11.703125 -12 C 11.585938 -12.675781 11.398438 -13.253906 11.140625 -13.734375 C 10.878906 -14.222656 10.53125 -14.597656 10.09375 -14.859375 C 9.664062 -15.128906 9.140625 -15.265625 8.515625 -15.265625 Z M 8.90625 0.296875 C 7.78125 0.296875 6.769531 0.109375 5.875 -0.265625 C 4.988281 -0.640625 4.234375 -1.191406 3.609375 -1.921875 C 2.992188 -2.648438 2.519531 -3.539062 2.1875 -4.59375 C 1.863281 -5.644531 1.703125 -6.84375 1.703125 -8.1875 C 1.703125 -11.082031 2.296875 -13.257812 3.484375 -14.71875 C 4.679688 -16.1875 6.378906 -16.921875 8.578125 -16.921875 C 9.578125 -16.921875 10.472656 -16.765625 11.265625 -16.453125 C 12.066406 -16.140625 12.742188 -15.671875 13.296875 -15.046875 C 13.859375 -14.429688 14.285156 -13.660156 14.578125 -12.734375 C 14.878906 -11.816406 15.03125 -10.742188 15.03125 -9.515625 L 15.03125 -8.09375 L 4.703125 -8.09375 C 4.722656 -6.96875 4.835938 -6 5.046875 -5.1875 C 5.253906 -4.375 5.550781 -3.703125 5.9375 -3.171875 C 6.332031 -2.648438 6.8125 -2.265625 7.375 -2.015625 C 7.9375 -1.773438 8.585938 -1.65625 9.328125 -1.65625 C 9.859375 -1.65625 10.351562 -1.710938 10.8125 -1.828125 C 11.269531 -1.953125 11.6875 -2.113281 12.0625 -2.3125 C 12.4375 -2.519531 12.765625 -2.75 13.046875 -3 C 13.335938 -3.257812 13.578125 -3.53125 13.765625 -3.8125 C 13.898438 -3.75 14.03125 -3.625 14.15625 -3.4375 C 14.28125 -3.25 14.34375 -3.019531 14.34375 -2.75 C 14.34375 -2.4375 14.234375 -2.101562 14.015625 -1.75 C 13.796875 -1.394531 13.457031 -1.0625 13 -0.75 C 12.550781 -0.445312 11.984375 -0.195312 11.296875 0 C 10.617188 0.195312 9.820312 0.296875 8.90625 0.296875 Z M 8.90625 0.296875 "/></g></g></g><g fill="#ffffff" fill-opacity="1"><g transform="translate(223.114839, 189.789612)"><g><path d="M 6.515625 0.296875 C 5.734375 0.296875 5.023438 0.226562 4.390625 0.09375 C 3.765625 -0.0390625 3.226562 -0.242188 2.78125 -0.515625 C 2.34375 -0.796875 2 -1.140625 1.75 -1.546875 C 1.507812 -1.960938 1.390625 -2.441406 1.390625 -2.984375 C 1.390625 -3.398438 1.457031 -3.742188 1.59375 -4.015625 C 1.726562 -4.296875 1.894531 -4.515625 2.09375 -4.671875 C 2.289062 -4.835938 2.503906 -4.953125 2.734375 -5.015625 C 2.960938 -5.078125 3.164062 -5.109375 3.34375 -5.109375 C 3.34375 -4.566406 3.394531 -4.054688 3.5 -3.578125 C 3.613281 -3.109375 3.800781 -2.691406 4.0625 -2.328125 C 4.332031 -1.972656 4.679688 -1.691406 5.109375 -1.484375 C 5.535156 -1.285156 6.0625 -1.1875 6.6875 -1.1875 C 7.238281 -1.1875 7.726562 -1.253906 8.15625 -1.390625 C 8.582031 -1.523438 8.9375 -1.710938 9.21875 -1.953125 C 9.507812 -2.203125 9.726562 -2.5 9.875 -2.84375 C 10.03125 -3.195312 10.109375 -3.582031 10.109375 -4 C 10.109375 -4.382812 10.050781 -4.710938 9.9375 -4.984375 C 9.820312 -5.265625 9.617188 -5.523438 9.328125 -5.765625 C 9.046875 -6.003906 8.65625 -6.25 8.15625 -6.5 C 7.664062 -6.757812 7.046875 -7.050781 6.296875 -7.375 C 5.492188 -7.726562 4.796875 -8.066406 4.203125 -8.390625 C 3.617188 -8.722656 3.132812 -9.078125 2.75 -9.453125 C 2.375 -9.835938 2.085938 -10.273438 1.890625 -10.765625 C 1.703125 -11.253906 1.609375 -11.835938 1.609375 -12.515625 C 1.609375 -13.222656 1.742188 -13.847656 2.015625 -14.390625 C 2.296875 -14.941406 2.691406 -15.398438 3.203125 -15.765625 C 3.722656 -16.128906 4.335938 -16.40625 5.046875 -16.59375 C 5.765625 -16.789062 6.566406 -16.890625 7.453125 -16.890625 C 8.179688 -16.890625 8.828125 -16.8125 9.390625 -16.65625 C 9.960938 -16.507812 10.4375 -16.304688 10.8125 -16.046875 C 11.195312 -15.796875 11.484375 -15.492188 11.671875 -15.140625 C 11.867188 -14.796875 11.96875 -14.429688 11.96875 -14.046875 C 11.96875 -13.484375 11.773438 -13.03125 11.390625 -12.6875 C 11.003906 -12.351562 10.453125 -12.1875 9.734375 -12.1875 C 9.734375 -13.226562 9.519531 -14.035156 9.09375 -14.609375 C 8.664062 -15.179688 7.988281 -15.46875 7.0625 -15.46875 C 6.539062 -15.46875 6.09375 -15.40625 5.71875 -15.28125 C 5.34375 -15.164062 5.035156 -14.992188 4.796875 -14.765625 C 4.566406 -14.546875 4.394531 -14.285156 4.28125 -13.984375 C 4.175781 -13.679688 4.125 -13.347656 4.125 -12.984375 C 4.125 -12.585938 4.191406 -12.242188 4.328125 -11.953125 C 4.472656 -11.671875 4.695312 -11.410156 5 -11.171875 C 5.3125 -10.929688 5.710938 -10.695312 6.203125 -10.46875 C 6.691406 -10.238281 7.28125 -9.984375 7.96875 -9.703125 C 8.78125 -9.359375 9.476562 -9.019531 10.0625 -8.6875 C 10.644531 -8.351562 11.125 -7.988281 11.5 -7.59375 C 11.882812 -7.207031 12.164062 -6.765625 12.34375 -6.265625 C 12.53125 -5.773438 12.625 -5.207031 12.625 -4.5625 C 12.625 -3.75 12.476562 -3.039062 12.1875 -2.4375 C 11.894531 -1.832031 11.476562 -1.320312 10.9375 -0.90625 C 10.40625 -0.5 9.765625 -0.195312 9.015625 0 C 8.265625 0.195312 7.429688 0.296875 6.515625 0.296875 Z M 6.515625 0.296875 "/></g></g></g><g fill="#ffffff" fill-opacity="1"><g transform="translate(235.549405, 189.789612)"><g><path d="M 6.515625 0.296875 C 5.734375 0.296875 5.023438 0.226562 4.390625 0.09375 C 3.765625 -0.0390625 3.226562 -0.242188 2.78125 -0.515625 C 2.34375 -0.796875 2 -1.140625 1.75 -1.546875 C 1.507812 -1.960938 1.390625 -2.441406 1.390625 -2.984375 C 1.390625 -3.398438 1.457031 -3.742188 1.59375 -4.015625 C 1.726562 -4.296875 1.894531 -4.515625 2.09375 -4.671875 C 2.289062 -4.835938 2.503906 -4.953125 2.734375 -5.015625 C 2.960938 -5.078125 3.164062 -5.109375 3.34375 -5.109375 C 3.34375 -4.566406 3.394531 -4.054688 3.5 -3.578125 C 3.613281 -3.109375 3.800781 -2.691406 4.0625 -2.328125 C 4.332031 -1.972656 4.679688 -1.691406 5.109375 -1.484375 C 5.535156 -1.285156 6.0625 -1.1875 6.6875 -1.1875 C 7.238281 -1.1875 7.726562 -1.253906 8.15625 -1.390625 C 8.582031 -1.523438 8.9375 -1.710938 9.21875 -1.953125 C 9.507812 -2.203125 9.726562 -2.5 9.875 -2.84375 C 10.03125 -3.195312 10.109375 -3.582031 10.109375 -4 C 10.109375 -4.382812 10.050781 -4.710938 9.9375 -4.984375 C 9.820312 -5.265625 9.617188 -5.523438 9.328125 -5.765625 C 9.046875 -6.003906 8.65625 -6.25 8.15625 -6.5 C 7.664062 -6.757812 7.046875 -7.050781 6.296875 -7.375 C 5.492188 -7.726562 4.796875 -8.066406 4.203125 -8.390625 C 3.617188 -8.722656 3.132812 -9.078125 2.75 -9.453125 C 2.375 -9.835938 2.085938 -10.273438 1.890625 -10.765625 C 1.703125 -11.253906 1.609375 -11.835938 1.609375 -12.515625 C 1.609375 -13.222656 1.742188 -13.847656 2.015625 -14.390625 C 2.296875 -14.941406 2.691406 -15.398438 3.203125 -15.765625 C 3.722656 -16.128906 4.335938 -16.40625 5.046875 -16.59375 C 5.765625 -16.789062 6.566406 -16.890625 7.453125 -16.890625 C 8.179688 -16.890625 8.828125 -16.8125 9.390625 -16.65625 C 9.960938 -16.507812 10.4375 -16.304688 10.8125 -16.046875 C 11.195312 -15.796875 11.484375 -15.492188 11.671875 -15.140625 C 11.867188 -14.796875 11.96875 -14.429688 11.96875 -14.046875 C 11.96875 -13.484375 11.773438 -13.03125 11.390625 -12.6875 C 11.003906 -12.351562 10.453125 -12.1875 9.734375 -12.1875 C 9.734375 -13.226562 9.519531 -14.035156 9.09375 -14.609375 C 8.664062 -15.179688 7.988281 -15.46875 7.0625 -15.46875 C 6.539062 -15.46875 6.09375 -15.40625 5.71875 -15.28125 C 5.34375 -15.164062 5.035156 -14.992188 4.796875 -14.765625 C 4.566406 -14.546875 4.394531 -14.285156 4.28125 -13.984375 C 4.175781 -13.679688 4.125 -13.347656 4.125 -12.984375 C 4.125 -12.585938 4.191406 -12.242188 4.328125 -11.953125 C 4.472656 -11.671875 4.695312 -11.410156 5 -11.171875 C 5.3125 -10.929688 5.710938 -10.695312 6.203125 -10.46875 C 6.691406 -10.238281 7.28125 -9.984375 7.96875 -9.703125 C 8.78125 -9.359375 9.476562 -9.019531 10.0625 -8.6875 C 10.644531 -8.351562 11.125 -7.988281 11.5 -7.59375 C 11.882812 -7.207031 12.164062 -6.765625 12.34375 -6.265625 C 12.53125 -5.773438 12.625 -5.207031 12.625 -4.5625 C 12.625 -3.75 12.476562 -3.039062 12.1875 -2.4375 C 11.894531 -1.832031 11.476562 -1.320312 10.9375 -0.90625 C 10.40625 -0.5 9.765625 -0.195312 9.015625 0 C 8.265625 0.195312 7.429688 0.296875 6.515625 0.296875 Z M 6.515625 0.296875 "/></g></g></g><g fill="#ffffff" fill-opacity="1"><g transform="translate(247.983971, 189.789612)"><g><path d="M 16.1875 -8.34375 C 16.1875 -5.425781 15.566406 -3.253906 14.328125 -1.828125 C 13.085938 -0.410156 11.28125 0.296875 8.90625 0.296875 C 7.78125 0.296875 6.773438 0.125 5.890625 -0.21875 C 5.003906 -0.570312 4.25 -1.109375 3.625 -1.828125 C 3 -2.546875 2.519531 -3.445312 2.1875 -4.53125 C 1.863281 -5.613281 1.703125 -6.882812 1.703125 -8.34375 C 1.703125 -11.238281 2.316406 -13.390625 3.546875 -14.796875 C 4.773438 -16.210938 6.585938 -16.921875 8.984375 -16.921875 C 10.109375 -16.921875 11.113281 -16.742188 12 -16.390625 C 12.882812 -16.046875 13.640625 -15.519531 14.265625 -14.8125 C 14.890625 -14.101562 15.363281 -13.207031 15.6875 -12.125 C 16.019531 -11.050781 16.1875 -9.789062 16.1875 -8.34375 Z M 4.703125 -8.34375 C 4.703125 -7.1875 4.773438 -6.171875 4.921875 -5.296875 C 5.078125 -4.421875 5.320312 -3.6875 5.65625 -3.09375 C 6 -2.5 6.441406 -2.050781 6.984375 -1.75 C 7.523438 -1.445312 8.1875 -1.296875 8.96875 -1.296875 C 9.738281 -1.296875 10.390625 -1.445312 10.921875 -1.75 C 11.460938 -2.050781 11.898438 -2.5 12.234375 -3.09375 C 12.566406 -3.6875 12.804688 -4.421875 12.953125 -5.296875 C 13.097656 -6.171875 13.171875 -7.1875 13.171875 -8.34375 C 13.171875 -9.488281 13.09375 -10.492188 12.9375 -11.359375 C 12.789062 -12.234375 12.550781 -12.957031 12.21875 -13.53125 C 11.882812 -14.113281 11.445312 -14.550781 10.90625 -14.84375 C 10.363281 -15.132812 9.707031 -15.28125 8.9375 -15.28125 C 8.15625 -15.28125 7.492188 -15.132812 6.953125 -14.84375 C 6.421875 -14.550781 5.988281 -14.113281 5.65625 -13.53125 C 5.320312 -12.957031 5.078125 -12.234375 4.921875 -11.359375 C 4.773438 -10.492188 4.703125 -9.488281 4.703125 -8.34375 Z M 4.703125 -8.34375 "/></g></g></g></svg>