<svg width="72" height="72" viewBox="0 0 72 72" fill="none" xmlns="http://www.w3.org/2000/svg">
<circle cx="36" cy="36" r="34.75" stroke="#FFFFFA" stroke-width="2.5"/>
<path d="M51 35.1667C51.0057 37.3665 50.4918 39.5365 49.5 41.5C48.3241 43.853 46.5162 45.832 44.2791 47.2155C42.0419 48.599 39.4637 49.3324 36.8333 49.3334C34.6336 49.3391 32.4635 48.8252 30.5 47.8334L21 51L24.1667 41.5C23.1749 39.5365 22.6609 37.3665 22.6667 35.1667C22.6677 32.5363 23.401 29.9581 24.7845 27.721C26.168 25.4838 28.1471 23.676 30.5 22.5C32.4635 21.5083 34.6336 20.9943 36.8333 21H37.6667C41.1406 21.1917 44.4217 22.658 46.8819 25.1181C49.3421 27.5783 50.8083 30.8595 51 34.3334V35.1667Z" stroke="#FFFFFA" stroke-width="2" stroke-linecap="round" stroke-linejoin="round"/>
<path d="M43.9996 38.4817V40.5893C44.0004 40.7849 43.9602 40.9786 43.8817 41.1578C43.8031 41.3371 43.6879 41.498 43.5435 41.6303C43.399 41.7626 43.2285 41.8633 43.0428 41.9259C42.8571 41.9886 42.6603 42.0119 42.465 41.9943C40.299 41.7594 38.2183 41.0207 36.3902 39.8376C34.6895 38.7589 33.2475 37.3198 32.1667 35.6224C30.9771 33.7897 30.2368 31.7031 30.0057 29.5316C29.9881 29.3373 30.0113 29.1415 30.0736 28.9566C30.136 28.7718 30.2363 28.6019 30.3681 28.4578C30.4998 28.3138 30.6602 28.1987 30.839 28.1199C31.0178 28.041 31.2111 28.0003 31.4065 28.0001H33.5183C33.8599 27.9967 34.1911 28.1174 34.4501 28.3398C34.7091 28.5621 34.8783 28.8708 34.9261 29.2084C35.0152 29.8829 35.1805 30.5451 35.4188 31.1825C35.5135 31.4339 35.534 31.7072 35.4779 31.9699C35.4218 32.2327 35.2913 32.4738 35.1021 32.6648L34.2081 33.557C35.2102 35.3158 36.6693 36.7721 38.4316 37.7721L39.3256 36.8799C39.5169 36.6911 39.7586 36.5609 40.0218 36.5049C40.2851 36.4488 40.5589 36.4693 40.8108 36.5638C41.4495 36.8016 42.113 36.9666 42.7888 37.0556C43.1308 37.1037 43.4431 37.2756 43.6663 37.5386C43.8895 37.8015 44.0081 38.1372 43.9996 38.4817Z" fill="#FFFFFA"/>
</svg>
