<svg width="122" height="76" viewBox="0 0 122 76" fill="none" xmlns="http://www.w3.org/2000/svg">
<mask id="mask0_9_114" style="mask-type:luminance" maskUnits="userSpaceOnUse" x="0" y="0" width="67" height="76">
<path d="M0 0.58075H66.1955V75.7675H0V0.58075Z" fill="white"/>
</mask>
<g mask="url(#mask0_9_114)">
<path d="M33.0951 1.93349C50.7148 1.93349 64.9966 18.1581 64.9966 38.1711C64.9966 58.1841 50.7148 74.4087 33.0951 74.4087C15.4753 74.4087 1.19094 58.1841 1.19094 38.1711C1.19094 18.1581 15.4753 1.93349 33.0951 1.93349ZM33.0951 0.577728C14.8145 0.577728 -0.00268555 17.4075 -0.00268555 38.1711C-0.00268555 58.9317 14.8145 75.7615 33.0951 75.7615C51.373 75.7615 66.1902 58.9317 66.1902 38.1711C66.1902 17.4075 51.373 0.577728 33.0951 0.577728ZM48.957 21.4451V37.1684L45.0549 34.3056L37.6789 39.5091L36.4383 40.3842L35.7122 40.8975V16.7905L27.3307 22.6911V33.0625L25.3613 31.5496V21.4451L37.6789 12.7766L48.957 21.4451ZM5.54756 38.1711C5.54756 20.8904 17.8809 6.88483 33.0951 6.88483C48.3067 6.88483 60.64 20.8904 60.64 38.1711C60.64 46.1544 58.002 53.4375 53.6689 58.9673V42.3037L45.0862 35.7058L35.7122 42.3037V69.315C34.8503 69.407 33.9779 69.4574 33.0951 69.4574C32.2097 69.4574 31.3373 69.407 30.4754 69.315V36.9963L21.8927 30.3955L12.5187 36.9963V58.9673C8.18556 53.4375 5.54756 46.1544 5.54756 38.1711ZM14.0153 37.9427L20.3961 33.4512V65.933C18.0506 64.5476 15.9063 62.7884 14.0153 60.7266V37.9427ZM37.2088 43.25L43.5896 38.7615V67.1019C41.5706 68.0453 39.4341 68.7306 37.2088 69.1103V43.25ZM2.7868 38.1711C2.7868 57.1814 16.3555 72.5932 33.0951 72.5932C49.832 72.5932 63.4008 57.1814 63.4008 38.1711C63.4008 19.1579 49.832 3.74611 33.0951 3.74611C16.3555 3.74611 2.7868 19.1579 2.7868 38.1711Z" fill="#0B2976"/>
</g>
<path d="M83.3678 19.8077C83.3678 20.3299 83.3051 20.7867 83.1798 21.1724C83.0544 21.561 82.8768 21.8933 82.6469 22.1692C82.4171 22.4481 82.1402 22.6854 81.8216 22.8812C81.5003 23.08 81.1451 23.2491 80.7559 23.3915V23.4983C81.2365 23.6407 81.6701 23.8365 82.0619 24.0797C82.4589 24.3171 82.7984 24.6108 83.0857 24.9579C83.3704 25.3079 83.5924 25.7114 83.7544 26.1682C83.9137 26.6281 83.9947 27.1413 83.9947 27.7109C83.9947 29.2625 83.4958 30.4165 82.5007 31.176C81.5108 31.9354 80.0351 32.3151 78.0709 32.3151H71.4054V31.0692H72.2516C72.411 31.0692 72.5546 31.0543 72.68 31.0217C72.8106 30.9831 72.9229 30.9119 73.0143 30.8081C73.111 30.6983 73.1867 30.5441 73.2442 30.3453C73.3068 30.1495 73.3382 29.8795 73.3382 29.5384V18.2888C73.3382 17.9744 73.3068 17.7192 73.2442 17.5294C73.1867 17.3336 73.111 17.1823 73.0143 17.0784C72.9151 16.9687 72.8001 16.8945 72.6695 16.853C72.5442 16.8055 72.4031 16.7818 72.2516 16.7818H71.4054V15.5476H77.4441C79.4134 15.5476 80.8944 15.8918 81.8843 16.58C82.8716 17.2683 83.3678 18.3452 83.3678 19.8077ZM76.5978 30.8793H77.9769C78.4287 30.8793 78.8153 30.8259 79.1366 30.7132C79.4631 30.5945 79.7269 30.4106 79.9306 30.1554C80.1317 29.8944 80.278 29.5591 80.3694 29.1468C80.4582 28.7374 80.5052 28.233 80.5052 27.6397C80.5052 27.0642 80.4634 26.5658 80.3798 26.1445C80.3015 25.7173 80.1656 25.3673 79.9724 25.0884C79.7765 24.8125 79.5179 24.6078 79.1993 24.4713C78.8858 24.3289 78.4888 24.2577 78.0082 24.2577H76.5978V30.8793ZM76.5978 22.8219H77.3814C77.8672 22.8219 78.272 22.7685 78.5933 22.6557C78.9119 22.5371 79.1679 22.3591 79.356 22.1217C79.5492 21.8844 79.6851 21.5759 79.7634 21.1961C79.847 20.8105 79.8888 20.3477 79.8888 19.8077C79.8888 19.2797 79.8418 18.8347 79.753 18.4787C79.6616 18.1168 79.5153 17.8231 79.3142 17.6006C79.1104 17.381 78.8466 17.2208 78.5202 17.1259C78.1989 17.025 77.8097 16.9716 77.35 16.9716H76.5978V22.8219Z" fill="#0B2976"/>
<path d="M89.1589 32.5406C88.2317 32.5406 87.4586 32.4397 86.8396 32.2439C86.218 32.0481 85.7217 31.793 85.3456 31.4845C84.9695 31.17 84.7004 30.817 84.5411 30.4283C84.387 30.0338 84.3113 29.6451 84.3113 29.2654C84.3113 28.862 84.3766 28.5238 84.5098 28.2449C84.6404 27.969 84.8154 27.7435 85.0322 27.5685C85.2542 27.3964 85.5049 27.2689 85.7844 27.1888C86.0612 27.1116 86.3512 27.0701 86.6515 27.0701C86.6515 27.7435 86.7194 28.3369 86.8605 28.8501C87.0067 29.3574 87.2 29.7816 87.4455 30.1198C87.6963 30.461 87.994 30.7191 88.344 30.8911C88.6914 31.0573 89.0701 31.1403 89.4828 31.1403C89.885 31.1403 90.2455 31.078 90.5589 30.9505C90.8776 30.8259 91.1492 30.6479 91.3738 30.4165C91.5958 30.188 91.763 29.9181 91.8753 29.6095C91.9928 29.2951 92.0529 28.9569 92.0529 28.6009C92.0529 28.1974 91.9798 27.8414 91.8335 27.5329C91.6925 27.2244 91.4809 26.9396 91.1962 26.6785C90.9089 26.4115 90.5485 26.1564 90.1097 25.919C89.6761 25.6817 89.172 25.4266 88.5948 25.1477C87.8687 24.8095 87.2601 24.4594 86.7664 24.1034C86.2702 23.7474 85.8706 23.3648 85.565 22.9524C85.2646 22.543 85.0478 22.095 84.9172 21.6115C84.7919 21.1309 84.7292 20.6028 84.7292 20.0332C84.7292 19.3153 84.8546 18.6656 85.1053 18.0871C85.3613 17.5027 85.7165 17.0043 86.1709 16.5919C86.6228 16.1736 87.1582 15.8532 87.7799 15.6307C88.3989 15.4112 89.0701 15.2984 89.7962 15.2984C90.5537 15.2984 91.2093 15.3696 91.7604 15.512C92.3167 15.6544 92.7738 15.8502 93.129 16.0935C93.4894 16.3397 93.7585 16.6275 93.9335 16.9598C94.1058 17.292 94.1946 17.648 94.1946 18.0277C94.1946 18.3066 94.1424 18.5617 94.0379 18.7991C93.9335 19.0364 93.7767 19.247 93.5678 19.428C93.3588 19.603 93.0924 19.7425 92.7738 19.8433C92.4525 19.9383 92.079 19.9857 91.6559 19.9857C91.6559 19.6535 91.6167 19.2975 91.541 18.9177C91.4626 18.538 91.3346 18.1879 91.1544 17.8616C90.9794 17.5383 90.7522 17.2683 90.4753 17.0547C90.1958 16.8411 89.8589 16.7343 89.4619 16.7343C89.1824 16.7343 88.9186 16.7818 88.6679 16.8767C88.4224 16.9657 88.2082 17.1022 88.0202 17.292C87.8373 17.476 87.6911 17.7014 87.5814 17.9684C87.4769 18.2384 87.4246 18.5499 87.4246 18.9059C87.4246 19.2322 87.469 19.5407 87.5605 19.8315C87.6571 20.1252 87.8321 20.41 88.0828 20.6859C88.3336 20.9647 88.6783 21.2436 89.1171 21.5284C89.5612 21.8073 90.1358 22.1069 90.841 22.4303C91.5436 22.7566 92.1417 23.0918 92.638 23.4389C93.1394 23.7801 93.5495 24.1479 93.8708 24.5425C94.1894 24.94 94.4245 25.3732 94.5708 25.8478C94.717 26.3166 94.7902 26.8328 94.7902 27.4024C94.7902 28.1618 94.6569 28.859 94.3931 29.4909C94.1267 30.1168 93.748 30.6597 93.2544 31.1166C92.7659 31.5675 92.1783 31.9206 91.4887 32.1727C90.7992 32.416 90.0209 32.5406 89.1589 32.5406Z" fill="#0B2976"/>
<path d="M107.276 32.3151V31.0692H107.475C107.689 31.0692 107.882 31.0543 108.05 31.0217C108.217 30.992 108.353 30.9327 108.457 30.8437C108.567 30.7488 108.648 30.6153 108.697 30.4402C108.752 30.2682 108.781 30.0368 108.781 29.752V17.8616L104.612 32.3151H103.202L98.8349 17.8616V29.5384C98.8349 29.8795 98.8688 30.1495 98.9393 30.3453C99.0072 30.5441 99.1091 30.6983 99.2423 30.8081C99.3729 30.9119 99.5348 30.9831 99.7229 31.0217C99.911 31.0543 100.125 31.0692 100.371 31.0692H100.486V32.3151H95.3558V31.0692H96.223C96.3745 31.0692 96.5155 31.0543 96.6409 31.0217C96.7663 30.992 96.876 30.9268 96.9752 30.8318C97.0718 30.7369 97.1476 30.5945 97.205 30.4046C97.2599 30.2148 97.2886 29.9715 97.2886 29.6689V18.2176C97.2886 17.9032 97.2599 17.654 97.205 17.47C97.1476 17.2802 97.0718 17.1378 96.9752 17.0428C96.876 16.942 96.7663 16.8737 96.6409 16.8411C96.5155 16.8025 96.3745 16.7818 96.223 16.7818H95.3558V15.5476H101.321L104.748 26.8921L108.039 15.5476H113.89V16.7818H113.023C112.876 16.7818 112.735 16.8025 112.605 16.8411C112.479 16.8737 112.367 16.9449 112.27 17.0547C112.179 17.1585 112.106 17.3098 112.051 17.5056C111.994 17.7044 111.967 17.9744 111.967 18.3126V29.5384C111.967 29.8795 111.994 30.1495 112.051 30.3453C112.106 30.5441 112.179 30.6983 112.27 30.8081C112.367 30.9119 112.479 30.9831 112.605 31.0217C112.735 31.0543 112.876 31.0692 113.023 31.0692H113.89V32.3151H107.276Z" fill="#0B2976"/>
<path d="M79.1261 55.1492C77.9272 55.1492 76.8798 54.9415 75.9814 54.5321C75.0881 54.1227 74.3463 53.5353 73.756 52.7759C73.171 52.0164 72.7322 51.1086 72.4396 50.0465C72.1523 48.9874 72.0113 47.8097 72.0113 46.5103C72.0113 45.2465 72.1628 44.0865 72.471 43.0334C72.7766 41.9743 73.2337 41.0695 73.8396 40.3159C74.4508 39.5565 75.2082 38.9691 76.1067 38.5478C77.0104 38.1206 78.0604 37.907 79.2514 37.907C80.0245 37.907 80.6932 37.9752 81.2574 38.1087C81.8267 38.2452 82.3021 38.4291 82.6782 38.6665C83.0596 38.9038 83.3469 39.1856 83.5349 39.509C83.723 39.8264 83.817 40.1735 83.817 40.5533C83.817 40.8084 83.7648 41.0368 83.6603 41.2415C83.561 41.4403 83.4252 41.6094 83.2528 41.7518C83.0857 41.8942 82.8819 42.0069 82.6469 42.0841C82.417 42.1553 82.1689 42.1909 81.9051 42.1909C81.9051 41.82 81.8555 41.4551 81.7588 41.0991C81.6674 40.7431 81.5133 40.4227 81.2991 40.1379C81.0824 39.8472 80.7977 39.6128 80.4424 39.4378C80.0925 39.2568 79.6693 39.1649 79.1678 39.1649C78.2903 39.1649 77.5406 39.328 76.9216 39.6514C76.3078 39.9777 75.8064 40.4524 75.4172 41.0754C75.0254 41.6925 74.7433 42.4608 74.5709 43.3775C74.3959 44.2883 74.3097 45.3325 74.3097 46.5103C74.3097 47.6821 74.3986 48.7234 74.5814 49.6312C74.7616 50.542 75.0567 51.3103 75.4694 51.9333C75.8795 52.5504 76.4097 53.0221 77.0574 53.3455C77.7104 53.6629 78.5123 53.8201 79.4604 53.8201C79.8574 53.8201 80.2387 53.8023 80.6096 53.7608C80.9857 53.7133 81.32 53.6392 81.6126 53.5353V49.7499C81.6126 49.4028 81.5629 49.1269 81.4663 48.9192C81.3749 48.7056 81.2521 48.5454 81.1006 48.4327C80.9465 48.3229 80.7663 48.2517 80.5574 48.2191C80.3536 48.1805 80.1395 48.1598 79.9096 48.1598H79.826V47.163H85.2065V48.1598H85.1229C84.927 48.1598 84.7416 48.1805 84.5692 48.2191C84.3942 48.2517 84.2401 48.3259 84.1095 48.4446C83.9842 48.5632 83.8823 48.7382 83.8065 48.9667C83.736 49.1892 83.7021 49.4858 83.7021 49.8567V54.0693C83.0047 54.4431 82.2864 54.716 81.5499 54.8881C80.8186 55.0602 80.0089 55.1492 79.1261 55.1492Z" fill="#0B2976"/>
<path d="M90.2472 43.3537C89.4793 43.3537 88.889 43.7097 88.4711 44.4217C88.0584 45.1278 87.8181 46.1602 87.7502 47.5189H92.5039C92.5039 46.9019 92.4621 46.3412 92.3785 45.8339C92.3001 45.3206 92.1721 44.8816 91.9919 44.5167C91.8169 44.1458 91.5871 43.861 91.3024 43.6623C91.0151 43.4576 90.6651 43.3537 90.2472 43.3537ZM90.4979 55.1491C89.7509 55.1491 89.0797 55.0067 88.4816 54.7219C87.8887 54.4372 87.3872 54.0218 86.9771 53.476C86.5644 52.9242 86.2484 52.2478 86.0264 51.4468C85.8096 50.6487 85.7025 49.738 85.7025 48.7174C85.7025 46.5192 86.0995 44.8667 86.8935 43.7572C87.6875 42.6507 88.8185 42.0959 90.289 42.0959C90.9576 42.0959 91.5557 42.2146 92.086 42.4519C92.6214 42.6892 93.0732 43.0452 93.4441 43.5199C93.8124 43.9886 94.0945 44.573 94.2904 45.2761C94.4915 45.9733 94.5934 46.7832 94.5934 47.7088V48.7886H87.7084C87.7215 49.643 87.7946 50.3788 87.9278 50.9958C88.0663 51.6129 88.2648 52.1202 88.5233 52.5148C88.7871 52.9123 89.1084 53.203 89.4845 53.3929C89.8606 53.5828 90.2942 53.6777 90.7905 53.6777C91.1457 53.6777 91.4748 53.6302 91.783 53.5353C92.0886 53.4404 92.3628 53.3187 92.6083 53.1674C92.8591 53.0191 93.0785 52.8441 93.2665 52.6453C93.4598 52.4495 93.6217 52.2418 93.7471 52.0282C93.8359 52.0757 93.9247 52.1766 94.0083 52.3249C94.0971 52.4673 94.1441 52.6394 94.1441 52.8352C94.1441 53.0725 94.0658 53.3306 93.9143 53.6065C93.768 53.8765 93.5408 54.1257 93.2352 54.3541C92.9348 54.5855 92.5561 54.7753 92.0964 54.9237C91.6419 55.072 91.1091 55.1491 90.4979 55.1491Z" fill="#0B2976"/>
<path d="M98.9459 55.1492C98.4236 55.1492 97.9482 55.0958 97.5251 54.9949C97.1072 54.894 96.7467 54.7398 96.449 54.5321C96.1565 54.3185 95.9292 54.0574 95.7699 53.7489C95.608 53.4404 95.5296 53.0814 95.5296 52.669C95.5296 52.3546 95.574 52.0935 95.6654 51.8858C95.7542 51.6722 95.8665 51.5061 95.9997 51.3874C96.1303 51.2628 96.2714 51.1738 96.4176 51.1264C96.5691 51.073 96.7102 51.0433 96.8355 51.0433C96.8355 51.4557 96.8695 51.8443 96.94 52.2062C97.0158 52.5622 97.1411 52.8797 97.3161 53.1556C97.4885 53.4255 97.7184 53.6391 98.0057 53.7964C98.2904 53.9566 98.643 54.0337 99.0609 54.0337C99.4291 54.0337 99.7556 53.9833 100.043 53.8794C100.328 53.7697 100.565 53.6243 100.753 53.4404C100.947 53.2505 101.093 53.025 101.192 52.764C101.297 52.497 101.349 52.2062 101.349 51.8977C101.349 51.607 101.31 51.3578 101.234 51.1501C101.156 50.9365 101.02 50.7407 100.826 50.5568C100.631 50.3669 100.369 50.177 100.043 49.9872C99.7138 49.7973 99.3012 49.5808 98.7997 49.3345C98.2695 49.0675 97.8072 48.8094 97.4102 48.5632C97.0184 48.311 96.6945 48.0411 96.4385 47.7563C96.18 47.4655 95.9841 47.1333 95.8535 46.7595C95.7281 46.3886 95.6654 45.9466 95.6654 45.4304C95.6654 44.9023 95.7594 44.4306 95.9475 44.0183C96.1356 43.6 96.3994 43.2529 96.7415 42.974C97.0811 42.6981 97.4937 42.4875 97.9743 42.3451C98.4549 42.1968 98.9877 42.1196 99.5728 42.1196C100.059 42.1196 100.492 42.179 100.868 42.2976C101.25 42.4104 101.568 42.5646 101.819 42.7604C102.075 42.9503 102.268 43.1817 102.394 43.4487C102.524 43.7098 102.592 43.9886 102.592 44.2793C102.592 44.7065 102.459 45.0507 102.195 45.3117C101.937 45.5669 101.571 45.6915 101.098 45.6915C101.098 44.9023 100.952 44.2883 100.659 43.8522C100.372 43.419 99.9228 43.1995 99.3116 43.1995C98.9616 43.1995 98.6639 43.247 98.4131 43.3419C98.1676 43.4309 97.9665 43.5614 97.8072 43.7335C97.6452 43.8996 97.5277 44.0984 97.4519 44.3268C97.3814 44.5582 97.3475 44.8074 97.3475 45.0744C97.3475 45.377 97.3919 45.6381 97.4833 45.8576C97.5799 46.0712 97.7288 46.2729 97.9325 46.4628C98.1415 46.6467 98.4079 46.8247 98.737 46.9968C99.0635 47.1629 99.4579 47.3528 99.9176 47.5664C100.461 47.8275 100.926 48.0856 101.318 48.3377C101.707 48.5929 102.028 48.8688 102.279 49.1684C102.535 49.4621 102.723 49.7973 102.843 50.177C102.96 50.5508 103.02 50.981 103.02 51.4705C103.02 52.0816 102.921 52.6156 102.728 53.0725C102.532 53.5323 102.258 53.921 101.903 54.2354C101.547 54.544 101.119 54.7754 100.618 54.9237C100.116 55.072 99.5571 55.1492 98.9459 55.1492Z" fill="#0B2976"/>
<path d="M107.245 55.1492C106.722 55.1492 106.247 55.0958 105.824 54.9949C105.406 54.894 105.046 54.7398 104.748 54.5321C104.455 54.3185 104.228 54.0574 104.069 53.7489C103.907 53.4404 103.828 53.0814 103.828 52.669C103.828 52.3546 103.873 52.0935 103.964 51.8858C104.053 51.6722 104.165 51.5061 104.299 51.3874C104.429 51.2628 104.57 51.1738 104.716 51.1264C104.868 51.073 105.009 51.0433 105.134 51.0433C105.134 51.4557 105.168 51.8443 105.239 52.2062C105.315 52.5622 105.44 52.8797 105.615 53.1556C105.787 53.4255 106.017 53.6391 106.304 53.7964C106.589 53.9566 106.942 54.0337 107.36 54.0337C107.728 54.0337 108.054 53.9833 108.342 53.8794C108.626 53.7697 108.864 53.6243 109.052 53.4404C109.245 53.2505 109.392 53.025 109.491 52.764C109.595 52.497 109.648 52.2062 109.648 51.8977C109.648 51.607 109.608 51.3578 109.533 51.1501C109.454 50.9365 109.319 50.7407 109.125 50.5568C108.929 50.3669 108.668 50.177 108.342 49.9872C108.013 49.7973 107.6 49.5808 107.098 49.3345C106.568 49.0675 106.106 48.8094 105.709 48.5632C105.317 48.311 104.993 48.0411 104.737 47.7563C104.479 47.4655 104.283 47.1333 104.152 46.7595C104.027 46.3886 103.964 45.9466 103.964 45.4304C103.964 44.9023 104.058 44.4306 104.246 44.0183C104.434 43.6 104.698 43.2529 105.04 42.974C105.38 42.6981 105.793 42.4875 106.273 42.3451C106.754 42.1968 107.287 42.1196 107.872 42.1196C108.357 42.1196 108.791 42.179 109.167 42.2976C109.548 42.4104 109.867 42.5646 110.118 42.7604C110.374 42.9503 110.567 43.1817 110.692 43.4487C110.823 43.7098 110.891 43.9886 110.891 44.2793C110.891 44.7065 110.758 45.0507 110.494 45.3117C110.235 45.5669 109.87 45.6915 109.397 45.6915C109.397 44.9023 109.251 44.2883 108.958 43.8522C108.671 43.419 108.222 43.1995 107.61 43.1995C107.26 43.1995 106.963 43.247 106.712 43.3419C106.466 43.4309 106.265 43.5614 106.106 43.7335C105.944 43.8996 105.826 44.0984 105.751 44.3268C105.68 44.5582 105.646 44.8074 105.646 45.0744C105.646 45.377 105.691 45.6381 105.782 45.8576C105.879 46.0712 106.028 46.2729 106.231 46.4628C106.44 46.6467 106.707 46.8247 107.036 46.9968C107.362 47.1629 107.757 47.3528 108.216 47.5664C108.76 47.8275 109.225 48.0856 109.616 48.3377C110.005 48.5929 110.327 48.8688 110.577 49.1684C110.833 49.4621 111.021 49.7973 111.142 50.177C111.259 50.5508 111.319 50.981 111.319 51.4705C111.319 52.0816 111.22 52.6156 111.027 53.0725C110.831 53.5323 110.557 53.921 110.201 54.2354C109.846 54.544 109.418 54.7754 108.916 54.9237C108.415 55.072 107.856 55.1492 107.245 55.1492Z" fill="#0B2976"/>
<path d="M122 48.5988C122 50.8149 121.585 52.4614 120.757 53.5353C119.934 54.6122 118.725 55.1491 117.131 55.1491C116.384 55.1491 115.716 55.0186 115.125 54.7575C114.533 54.4906 114.028 54.0812 113.611 53.5353C113.198 52.9894 112.882 52.3101 112.66 51.4942C112.443 50.6725 112.336 49.7083 112.336 48.5988C112.336 46.4094 112.743 44.7777 113.558 43.7097C114.378 42.6358 115.59 42.0959 117.194 42.0959C117.946 42.0959 118.618 42.2324 119.21 42.4994C119.801 42.7604 120.302 43.1609 120.715 43.6979C121.133 44.2378 121.449 44.9142 121.666 45.7271C121.888 46.5429 122 47.5011 122 48.5988ZM114.342 48.5988C114.342 49.4769 114.389 50.2482 114.488 50.9128C114.593 51.5773 114.755 52.135 114.979 52.586C115.201 53.031 115.494 53.3662 115.857 53.5946C116.217 53.826 116.656 53.9388 117.173 53.9388C117.696 53.9388 118.134 53.826 118.49 53.5946C118.845 53.3662 119.132 53.031 119.357 52.586C119.579 52.135 119.738 51.5773 119.837 50.9128C119.934 50.2482 119.984 49.4769 119.984 48.5988C119.984 47.7296 119.931 46.9671 119.827 46.3085C119.728 45.6529 119.568 45.107 119.346 44.6709C119.122 44.2289 118.829 43.8966 118.469 43.6741C118.113 43.4546 117.675 43.3419 117.152 43.3419C116.635 43.3419 116.196 43.4546 115.836 43.6741C115.481 43.8966 115.191 44.2289 114.969 44.6709C114.752 45.107 114.593 45.6529 114.488 46.3085C114.389 46.9671 114.342 47.7296 114.342 48.5988Z" fill="#0B2976"/>
</svg>
